<svg xmlns="http://www.w3.org/2000/svg" version="1.1" xmlns:xlink="http://www.w3.org/1999/xlink" xmlns:svgjs="http://svgjs.dev/svgjs" width="2000" height="2250" viewBox="0 0 2000 2250"><g transform="matrix(1,0,0,1,0.00023124999972878868,0)"><svg viewBox="0 0 320 360" data-background-color="#ececea" preserveAspectRatio="xMidYMid meet" height="2250" width="2000" xmlns="http://www.w3.org/2000/svg" xmlns:xlink="http://www.w3.org/1999/xlink"><g id="tight-bounds" transform="matrix(1,0,0,1,-0.0000369999999634274,0)"><svg viewBox="0 0 320 360" height="360" width="320"><g><svg></svg></g><g><svg viewBox="0 0 320 360" height="360" width="320"><g><path transform="translate(-29.57346,-9.38389) scale(3.79147,3.79147)" d="M50 13.6c19.1 0 34.8 14.8 36.3 33.5h5.9c-0.3-4.7-1.4-9.2-3.2-13.5-2.1-5-5.2-9.6-9.1-13.4-3.9-3.9-8.4-6.9-13.4-9.1-5.3-2.2-10.8-3.4-16.5-3.4-5.7 0-11.2 1.1-16.5 3.3-5 2.1-9.6 5.2-13.4 9.1-3.9 3.9-6.9 8.4-9.1 13.4-1.8 4.3-2.9 8.9-3.2 13.5h5.9c1.5-18.6 17.2-33.4 36.3-33.4zM50 86.4c-19.1 0-34.8-14.8-36.3-33.5h-5.9c0.3 4.7 1.4 9.2 3.2 13.5 2.1 5 5.2 9.6 9.1 13.4 3.9 3.9 8.4 6.9 13.4 9.1 5.2 2.2 10.7 3.3 16.5 3.3 5.8 0 11.2-1.1 16.5-3.3 5-2.1 9.6-5.2 13.4-9.1 3.9-3.9 6.9-8.4 9.1-13.4 1.8-4.3 2.9-8.9 3.2-13.5h-5.9c-1.5 18.7-17.2 33.5-36.3 33.5z" fill="#009b7d" fill-rule="nonzero" stroke="none" stroke-width="1" stroke-linecap="butt" stroke-linejoin="miter" stroke-miterlimit="10" stroke-dasharray="" stroke-dashoffset="0" font-family="none" font-weight="none" font-size="none" text-anchor="none" style="mix-blend-mode: normal" data-fill-palette-color="tertiary"></path></g><g transform="matrix(1,0,0,1,56,119.08843447801146)"><svg viewBox="0 0 208 121.82313104397706" height="121.82313104397706" width="208"><g><svg viewBox="0 0 208 121.82313104397706" height="121.82313104397706" width="208"><g transform="matrix(1,0,0,1,0,75.29158228680689)"><svg viewBox="0 0 208 46.53154875717017" height="46.53154875717017" width="208"><g id="textblocktransform"><svg viewBox="0 0 208 46.53154875717017" height="46.53154875717017" width="208" id="textblock"><g><svg viewBox="0 0 208 46.53154875717017" height="46.53154875717017" width="208"><g transform="matrix(1,0,0,1,0,0)"><svg width="208" viewBox="2.5 -28.5 130.74 29.25" height="46.53154875717017" data-palette-color="#009b7d"><path d="M11.9-2.85L11.9-2.85Q15.05-2.85 18.05-5.5L18.05-5.5 18.6-5Q15.75-1.1 11.3 0.75L11.3 0.75Q6.9 0.75 4.7-2 2.5-4.75 2.5-9.65 2.5-14.55 5.25-18.78 8-23 12.6-24.25L12.6-24.25Q15.95-24.25 17.3-22.93 18.65-21.6 18.65-18.25L18.65-18.25Q18.65-16.35 18.15-15L18.15-15Q19.2-14.6 20.6-14.6L20.6-14.6 20.55-13.55Q20.25-13.55 19.9-13.55L19.9-13.55Q14.3-13.55 6.5-11.9L6.5-11.9Q6.5-5.25 9.1-3.6L9.1-3.6Q10.2-2.85 11.9-2.85ZM14.65-15.25Q14.65-18.55 14.03-19.85 13.4-21.15 11.4-21.15 9.4-21.15 7.95-19.95L7.95-19.95Q6.6-17.15 6.5-13.2L6.5-13.2Q10.6-14.55 14.65-15.25L14.65-15.25ZM43.45-19.75L43.45-19.75Q43.45-15.05 40.8-9.63 38.15-4.2 34.45-0.4L34.45-0.4Q33.1 0.25 31.5 0.75L31.5 0.75Q29.3 0.25 27.5-7.9L27.5-7.9Q26.75-11.45 26.05-15.78 25.35-20.1 24.9-21.8L24.9-21.8Q23.7-22.2 22.2-22.2L22.2-22.2 22.2-23.25Q25.55-23.4 29.3-24.25L29.3-24.25 29.65-24.05Q29.25-22.65 29.25-20.93 29.25-19.2 29.97-14.83 30.7-10.45 31.57-7.13 32.45-3.8 32.92-3.05 33.4-2.3 33.95-2.3L33.95-2.3Q36.8-5.8 38.12-9.28 39.45-12.75 39.45-17.1L39.45-17.1Q39.45-19.6 38.4-21.7L38.4-21.7Q36.95-22.15 35.6-22.15L35.6-22.15 35.65-23.2Q40.75-23.4 45.25-24.55L45.25-24.55 45.45-23.65Q44.8-23.15 43.05-22.25L43.05-22.25Q43.45-20.95 43.45-19.75ZM57.15-2.85L57.15-2.85Q60.3-2.85 63.3-5.5L63.3-5.5 63.85-5Q61-1.1 56.55 0.75L56.55 0.75Q52.15 0.75 49.95-2 47.75-4.75 47.75-9.65 47.75-14.55 50.5-18.78 53.25-23 57.85-24.25L57.85-24.25Q61.2-24.25 62.55-22.93 63.9-21.6 63.9-18.25L63.9-18.25Q63.9-16.35 63.4-15L63.4-15Q64.45-14.6 65.84-14.6L65.84-14.6 65.8-13.55Q65.5-13.55 65.15-13.55L65.15-13.55Q59.55-13.55 51.75-11.9L51.75-11.9Q51.75-5.25 54.35-3.6L54.35-3.6Q55.45-2.85 57.15-2.85ZM59.9-15.25Q59.9-18.55 59.27-19.85 58.65-21.15 56.65-21.15 54.65-21.15 53.2-19.95L53.2-19.95Q51.85-17.15 51.75-13.2L51.75-13.2Q55.85-14.55 59.9-15.25L59.9-15.25ZM85.79-14.55L85.79-14.55Q85.79-20.15 83.49-20.15L83.49-20.15Q81.54-20.15 78.89-17.7 76.24-15.25 75.34-13.15L75.34-13.15Q75.34-5.9 75.89-1.5L75.89-1.5Q77.24-1.2 79.04-0.55L79.04-0.55 78.94 0.4Q76.14 0 73.64 0 71.14 0 68.59 0.3L68.59 0.3 68.44-0.65Q69.94-1.3 71.39-1.65L71.39-1.65Q71.84-5.05 71.84-9.5L71.84-9.5 71.84-13.7Q71.84-18.3 71.49-21.85L71.49-21.85Q70.29-22.25 68.79-22.25L68.79-22.25 68.79-23.3Q71.99-23.45 75.54-24.25L75.54-24.25 75.89-24.05Q75.34-20.6 75.34-16.25L75.34-16.25 75.54-16.2Q77.24-18.55 79.97-21.03 82.69-23.5 84.89-24.25L84.89-24.25Q87.94-24.25 88.84-21.5L88.84-21.5Q89.44-19.55 89.44-16.7L89.44-16.7Q89.44-16.25 89.44-15.7L89.44-15.7 89.19-1.65Q90.64-1.3 92.14-0.65L92.14-0.65 91.99 0.3Q89.59 0 87.92 0 86.24 0 84.74 0.1L84.74 0.1 84.74-0.6Q85.54-4.5 85.74-13.45L85.74-13.45Q85.79-13.95 85.79-14.55ZM102.39-9.75L102.39-9.75Q102.39-2.85 103.89-2.85L103.89-2.85Q106.64-2.85 109.59-5.5L109.59-5.5 110.09-5Q107.19-0.95 103.04 0.75L103.04 0.75Q100.19 0.75 99.39-1.85L99.39-1.85Q98.69-4.05 98.69-9.45L98.69-9.45Q98.69-10.4 98.69-11.5L98.69-11.5 98.89-21.45 96.19-21.45 96.09-21.55Q96.09-22.35 96.24-22.65L96.24-22.65Q100.44-25.4 101.74-28.35L101.74-28.35Q102.34-28.5 103.14-28.5L103.14-28.5 103.34-28.4Q102.84-25.4 102.74-23.55L102.74-23.55 109.74-23.8 109.94-23.6Q109.59-22.7 109.29-21.25L109.29-21.25Q106.74-21.4 102.59-21.4L102.59-21.4 102.39-11.5Q102.39-10.6 102.39-9.75ZM123.29 0.75Q118.94 0.75 116.14-2.18 113.34-5.1 113.34-9.85 113.34-14.6 116.21-18.82 119.09-23.05 123.79-24.25L123.79-24.25Q128.44-24.25 130.84-21.55 133.24-18.85 133.24-14.1 133.24-9.35 130.44-5.15 127.64-0.95 123.29 0.75L123.29 0.75ZM122.44-21.15L122.44-21.15Q120.34-21.15 118.99-19.95L118.99-19.95Q117.34-16.8 117.34-12.7 117.34-8.6 119.19-5.48 121.04-2.35 124.14-2.35L124.14-2.35Q126.24-2.35 127.64-3.6L127.64-3.6Q129.24-6.65 129.24-11.03 129.24-15.4 127.56-18.28 125.89-21.15 122.44-21.15Z" opacity="1" transform="matrix(1,0,0,1,0,0)" fill="#009b7d" class="wordmark-text-0" data-fill-palette-color="primary" id="text-0"></path></svg></g></svg></g></svg></g></svg></g><g transform="matrix(1,0,0,1,71.8466998087954,0)"><svg viewBox="0 0 64.30660038240919 64.30660038240919" height="64.30660038240919" width="64.30660038240919"><g><svg></svg></g><g id="icon-0"><svg viewBox="0 0 64.30660038240919 64.30660038240919" height="64.30660038240919" width="64.30660038240919"><g><path transform="scale(0.64307,0.64307)" d="M30 100c-16.569 0-30-13.431-30-30v-40c0-16.569 13.431-30 30-30h40c16.569 0 30 13.431 30 30v40c0 16.569-13.431 30-30 30z" fill="#ffbf5d" fill-rule="nonzero" stroke="none" stroke-width="1" stroke-linecap="butt" stroke-linejoin="miter" stroke-miterlimit="10" stroke-dasharray="" stroke-dashoffset="0" font-family="none" font-weight="none" font-size="none" text-anchor="none" style="mix-blend-mode: normal" data-fill-palette-color="accent"></path></g><g transform="matrix(1,0,0,1,15.139409647635944,12.861320076481839)"><svg viewBox="0 0 34.0277810871373 38.58396022944551" height="38.58396022944551" width="34.0277810871373"><g><svg xmlns="http://www.w3.org/2000/svg" xmlns:xlink="http://www.w3.org/1999/xlink" version="1.1" x="0" y="0" viewBox="5.913 0 88.17300000000002 99.97899999999998" enable-background="new 0 0 100 100" xml:space="preserve" height="38.58396022944551" width="34.0277810871373" class="icon-cg-0" data-fill-palette-color="quaternary" id="cg-0"><g fill="#ececea" data-fill-palette-color="quaternary"><path fill-rule="evenodd" clip-rule="evenodd" d="M5.913 5.835v58.376c0.874 0.021 1.472 0.674 1.472 1.606 0 0.897-0.566 1.565-1.472 1.601v16.328c3.223 0 5.835 2.612 5.835 5.836h30.397c0-3.224 2.612-5.836 5.835-5.836V67.383c-0.753-0.122-1.264-0.735-1.264-1.564 0-0.843 0.521-1.435 1.264-1.562V5.835c-3.223 0-5.835-2.614-5.835-5.835H11.749C11.749 3.222 9.136 5.835 5.913 5.835zM44.466 65.818c0 0.922-0.588 1.613-1.535 1.613-0.896 0-1.512-0.691-1.512-1.613 0-0.947 0.641-1.614 1.537-1.614S44.466 64.871 44.466 65.818zM39.169 65.818c0 0.922-0.589 1.613-1.536 1.613-0.896 0-1.511-0.691-1.511-1.613 0-0.947 0.641-1.614 1.536-1.614C38.555 64.204 39.169 64.871 39.169 65.818zM33.872 65.818c0 0.922-0.589 1.613-1.536 1.613-0.897 0-1.509-0.691-1.509-1.613 0-0.947 0.639-1.614 1.535-1.614C33.257 64.204 33.872 64.871 33.872 65.818zM28.574 65.818c0 0.922-0.589 1.613-1.536 1.613-0.896 0-1.511-0.691-1.511-1.613 0-0.947 0.639-1.614 1.536-1.614C27.96 64.204 28.574 64.871 28.574 65.818zM23.277 65.818c0 0.922-0.589 1.613-1.536 1.613-0.896 0-1.509-0.691-1.509-1.613 0-0.947 0.64-1.614 1.535-1.614C22.664 64.204 23.277 64.871 23.277 65.818zM17.979 65.818c0 0.922-0.587 1.613-1.535 1.613-0.898 0-1.511-0.691-1.511-1.613 0-0.947 0.64-1.614 1.536-1.614C17.365 64.204 17.979 64.871 17.979 65.818zM12.683 65.818c0 0.922-0.589 1.613-1.537 1.613-0.896 0-1.509-0.691-1.509-1.613 0-0.947 0.639-1.614 1.535-1.614C12.068 64.204 12.683 64.871 12.683 65.818zM36.7 9.803v18.193h-1.399V9.803H36.7zM33.944 9.803v18.193h-1.442V9.803H33.944zM31.146 9.803v18.193h-4.199V9.803H31.146zM25.504 9.803v18.193h-1.356V9.803H25.504zM22.749 9.803v18.193h-2.799V9.803H22.749zM18.506 9.803v18.193H17.15V9.803H18.506z" fill="#ececea" data-fill-palette-color="quaternary"></path><path fill-rule="evenodd" clip-rule="evenodd" d="M91.371 19.312L64 6.092c-1.402 2.9-4.891 4.118-7.793 2.716l-4.104 8.498v46.951 3.475 16.016 4.122H47.98c-0.944 0-1.714 0.769-1.714 1.714v4.122h-4.121H39.42l12.989 6.273c1.402-2.902 4.892-4.119 7.794-2.717l7.116-14.735c-0.624-0.438-0.818-1.212-0.457-1.959 0.366-0.758 1.092-1.064 1.816-0.856l25.408-52.606C91.186 25.703 89.971 22.212 91.371 19.312zM55.296 74.981c-0.4 0.829-1.231 1.195-2.085 0.783-0.808-0.389-1.059-1.277-0.657-2.109 0.41-0.852 1.275-1.175 2.084-0.784C55.444 73.262 55.708 74.128 55.296 74.981zM72.122 20.902l-7.911 16.382-1.221-0.59 7.911-16.382L72.122 20.902zM64.6 17.269l1.222 0.59-7.913 16.382-1.221-0.589L64.6 17.269zM60.064 77.285c-0.399 0.831-1.231 1.195-2.084 0.785-0.808-0.391-1.06-1.28-0.658-2.11 0.412-0.853 1.277-1.175 2.085-0.785C60.215 75.563 60.478 76.434 60.064 77.285zM59.209 34.868l7.911-16.382 2.521 1.216-7.912 16.383L59.209 34.868zM64.836 79.589c-0.401 0.829-1.231 1.197-2.085 0.784-0.808-0.39-1.06-1.279-0.659-2.109 0.412-0.854 1.279-1.176 2.086-0.785C64.983 77.869 65.247 78.735 64.836 79.589zM65.51 37.912l7.912-16.382 3.78 1.825-7.911 16.383L65.51 37.912zM70.512 40.328l7.912-16.383 1.298 0.627-7.911 16.382L70.512 40.328zM74.293 42.154l-1.262-0.609 7.913-16.383 1.26 0.609L74.293 42.154z" fill="#ececea" data-fill-palette-color="quaternary"></path></g></svg></g></svg></g></svg></g></svg></g><g></g></svg></g></svg></g></svg></g><defs></defs></svg><rect width="320" height="360" fill="none" stroke="none" visibility="hidden"></rect></g></svg></g></svg>